<svg id="Layer_1" data-name="Layer 1" xmlns="http://www.w3.org/2000/svg" viewBox="0 0 247 204"><defs><style>.cls-1{fill:#e6e6e6;}</style></defs><title>Vliegende_mensen1</title><circle class="cls-1" cx="72.83" cy="8.72" r="8.9"/><rect class="cls-1" x="73.69" y="14.83" width="23.19" height="5.16" rx="2.58" transform="translate(8.56 58.52) rotate(-39.72)"/><rect class="cls-1" x="73.85" y="37.46" width="4.33" height="28.83" rx="2.17"/><rect class="cls-1" x="61.61" y="34.59" width="4.33" height="28.83" rx="2.17" transform="translate(38.29 -27.28) rotate(33.99)"/><rect class="cls-1" x="67.76" y="17.84" width="10.86" height="24.81" rx="5.43"/><rect class="cls-1" x="51.55" y="14.42" width="21.58" height="5.16" rx="2.58" transform="translate(27.85 -37.64) rotate(42.48)"/><circle class="cls-1" cx="56.78" cy="110.12" r="8.9"/><rect class="cls-1" x="33.54" y="117.31" width="23.19" height="5.16" rx="2.58" transform="translate(135.35 28.93) rotate(65.4)"/><rect class="cls-1" x="12.11" y="87.54" width="4.33" height="28.83" rx="2.17" transform="translate(116.42 114.76) rotate(105.12)"/><rect class="cls-1" x="18.07" y="76.47" width="4.33" height="28.83" rx="2.17" transform="translate(95.04 146.33) rotate(139.11)"/><rect class="cls-1" x="30.47" y="92.44" width="10.86" height="24.81" rx="5.43" transform="translate(146.48 97.55) rotate(105.12)"/><rect class="cls-1" x="40.72" y="95.26" width="21.58" height="5.16" rx="2.58" transform="translate(147.43 152.85) rotate(147.6)"/><circle class="cls-1" cx="228.55" cy="33.37" r="8.9"/><rect class="cls-1" x="220.35" y="45.59" width="23.19" height="5.16" rx="2.58" transform="translate(2.27 -9.89) rotate(2.45)"/><rect class="cls-1" x="199.77" y="53.08" width="4.33" height="28.83" rx="2.17" transform="translate(97.6 -118.1) rotate(42.17)"/><rect class="cls-1" x="192.63" y="42.74" width="4.33" height="28.83" rx="2.17" transform="translate(203.69 -145.66) rotate(76.16)"/><rect class="cls-1" x="208.93" y="37.15" width="10.86" height="24.81" rx="5.43" transform="translate(88.77 -131.09) rotate(42.17)"/><rect class="cls-1" x="204.42" y="29.88" width="21.58" height="5.16" rx="2.58" transform="translate(227.49 -184.84) rotate(84.66)"/><circle class="cls-1" cx="94.39" cy="147.41" r="8.9"/><rect class="cls-1" x="97.94" y="143.7" width="23.19" height="5.16" rx="2.58" transform="translate(-55.1 225.59) rotate(-78.9)"/><rect class="cls-1" x="121.96" y="164.44" width="4.33" height="28.83" rx="2.17" transform="translate(-85.08 118.61) rotate(-39.18)"/><rect class="cls-1" x="110.66" y="169.95" width="4.33" height="28.83" rx="2.17" transform="translate(-16.21 10.96) rotate(-5.19)"/><rect class="cls-1" x="102.84" y="151.47" width="10.86" height="24.81" rx="5.43" transform="translate(-79.19 105.23) rotate(-39.18)"/><rect class="cls-1" x="80.7" y="157.88" width="21.58" height="5.16" rx="2.58" transform="translate(9.4 -5.01) rotate(3.31)"/><circle class="cls-1" cx="116.62" cy="64.03" r="8.9"/><rect class="cls-1" x="119.96" y="64.24" width="23.19" height="5.16" rx="2.58" transform="translate(13.91 155.88) rotate(-64.05)"/><rect class="cls-1" x="135.15" y="87.63" width="4.33" height="28.83" rx="2.17" transform="translate(-29.85 65.64) rotate(-24.33)"/><rect class="cls-1" x="122.81" y="90.06" width="4.33" height="28.83" rx="2.17" transform="translate(19.29 -19.48) rotate(9.66)"/><rect class="cls-1" x="120.39" y="71.1" width="10.86" height="24.81" rx="5.43" transform="translate(-23.23 59.26) rotate(-24.33)"/><rect class="cls-1" x="99.69" y="73.32" width="21.58" height="5.16" rx="2.58" transform="translate(29.14 -30.64) rotate(18.15)"/><circle class="cls-1" cx="196.88" cy="112.42" r="8.9"/><rect class="cls-1" x="198.4" y="117.49" width="23.19" height="5.16" rx="2.58" transform="translate(-24.1 181.01) rotate(-44.35)"/><rect class="cls-1" x="201.38" y="140.76" width="4.33" height="28.83" rx="2.17" transform="translate(-11.86 16.94) rotate(-4.63)"/><rect class="cls-1" x="188.94" y="138.89" width="4.33" height="28.83" rx="2.17" transform="translate(99.7 -74) rotate(29.36)"/><rect class="cls-1" x="193.54" y="121.44" width="10.86" height="24.81" rx="5.43" transform="translate(-10.16 16.5) rotate(-4.63)"/><rect class="cls-1" x="176.3" y="118.94" width="21.58" height="5.16" rx="2.58" transform="matrix(0.79, 0.61, -0.61, 0.79, 113.93, -89.24)"/></svg>