<svg id="Layer_1" data-name="Layer 1" xmlns="http://www.w3.org/2000/svg" viewBox="0 0 244 159"><defs><style>.cls-1{fill:#e6e6e6;}</style></defs><title>Vliegende_Mensen2</title><circle class="cls-1" cx="137.04" cy="124.39" r="8.9"/><rect class="cls-1" x="113.63" y="131.36" width="23.19" height="5.16" rx="2.58" transform="translate(197.96 -34.38) rotate(66.45)"/><rect class="cls-1" x="92.53" y="101.02" width="4.33" height="28.83" rx="2.17" transform="translate(231.93 56.63) rotate(106.17)"/><rect class="cls-1" x="98.69" y="90.07" width="4.33" height="28.83" rx="2.17" transform="translate(245.24 120.07) rotate(140.15)"/><rect class="cls-1" x="110.83" y="106.33" width="10.86" height="24.81" rx="5.43" transform="translate(262.67 40.13) rotate(106.17)"/><rect class="cls-1" x="121.21" y="109.43" width="21.58" height="5.16" rx="2.58" transform="translate(303.01 138.99) rotate(148.65)"/><circle class="cls-1" cx="231.76" cy="119.13" r="8.9"/><rect class="cls-1" x="219.79" y="131.73" width="23.19" height="5.16" rx="2.58" transform="matrix(0.96, 0.29, -0.29, 0.96, 48.67, -61.12)"/><rect class="cls-1" x="195.36" y="131.19" width="4.33" height="28.83" rx="2.17" transform="translate(209.97 -99.47) rotate(56.51)"/><rect class="cls-1" x="191" y="119.4" width="4.33" height="28.83" rx="2.17" transform="translate(328.66 -58.18) rotate(90.5)"/><rect class="cls-1" x="208.57" y="118.9" width="10.86" height="24.81" rx="5.43" transform="matrix(0.55, 0.83, -0.83, 0.55, 205.43, -119.62)"/><rect class="cls-1" x="208.28" y="112.37" width="21.58" height="5.16" rx="2.58" transform="translate(366.85 -83.45) rotate(98.99)"/><circle class="cls-1" cx="11.59" cy="23.13" r="8.9"/><rect class="cls-1" x="0.37" y="35.73" width="23.19" height="5.16" rx="2.58" transform="translate(34.49 71.53) rotate(163.21)"/><rect class="cls-1" x="43.66" y="35.19" width="4.33" height="28.83" rx="2.17" transform="translate(112.48 38.75) rotate(123.49)"/><rect class="cls-1" x="48.02" y="23.4" width="4.33" height="28.83" rx="2.17" transform="translate(87.56 -12.71) rotate(89.5)"/><rect class="cls-1" x="23.93" y="22.9" width="10.86" height="24.81" rx="5.43" transform="translate(74.99 30.3) rotate(123.49)"/><rect class="cls-1" x="13.5" y="16.37" width="21.58" height="5.16" rx="2.58" transform="translate(39.21 -8) rotate(81.01)"/><circle class="cls-1" cx="15.46" cy="106.57" r="8.9"/><rect class="cls-1" x="19.03" y="103.25" width="23.19" height="5.16" rx="2.58" transform="translate(-79.33 112.65) rotate(-77.41)"/><rect class="cls-1" x="42.21" y="124.36" width="4.33" height="28.83" rx="2.17" transform="translate(-75.58 56.08) rotate(-37.69)"/><rect class="cls-1" x="30.76" y="129.58" width="4.33" height="28.83" rx="2.17" transform="translate(-9.22 2.42) rotate(-3.7)"/><rect class="cls-1" x="23.48" y="110.99" width="10.86" height="24.81" rx="5.43" transform="translate(-69.41 43.41) rotate(-37.69)"/><rect class="cls-1" x="1.43" y="116.96" width="21.58" height="5.16" rx="2.58" transform="translate(10.04 -0.6) rotate(4.8)"/><circle class="cls-1" cx="105.86" cy="8.8" r="8.9"/><rect class="cls-1" x="109.11" y="9.39" width="23.19" height="5.16" rx="2.58" transform="translate(54.47 113.59) rotate(-62.56)"/><rect class="cls-1" x="123.39" y="32.92" width="4.33" height="28.83" rx="2.17" transform="translate(-8.53 52.45) rotate(-22.84)"/><rect class="cls-1" x="110.99" y="35.03" width="4.33" height="28.83" rx="2.17" transform="translate(11.69 -20.94) rotate(11.14)"/><rect class="cls-1" x="109.11" y="16.1" width="10.86" height="24.81" rx="5.43" transform="translate(-2.08 46.7) rotate(-22.84)"/><rect class="cls-1" x="88.62" y="17.92" width="21.58" height="5.16" rx="2.58" transform="translate(12.67 -32.22) rotate(19.64)"/><circle class="cls-1" cx="184.98" cy="51.25" r="8.9"/><rect class="cls-1" x="160.47" y="56.66" width="23.19" height="5.16" rx="2.58" transform="translate(257.89 219.71) rotate(-137.14)"/><rect class="cls-1" x="177.26" y="79.76" width="4.33" height="28.83" rx="2.17" transform="translate(353.43 198.03) rotate(-176.86)"/><rect class="cls-1" x="189.65" y="77.56" width="4.33" height="28.83" rx="2.17" transform="translate(403.65 72.59) rotate(149.15)"/><rect class="cls-1" x="178.02" y="60.32" width="10.86" height="24.81" rx="5.43" transform="translate(362.64 155.4) rotate(-176.86)"/><rect class="cls-1" x="184.21" y="57.52" width="21.58" height="5.16" rx="2.58" transform="translate(383.91 -17.04) rotate(140.66)"/></svg>