<svg id="Layer_1" data-name="Layer 1" xmlns="http://www.w3.org/2000/svg" viewBox="0 0 277.45 269.43"><defs><style>.cls-1{fill:#3b5093;}.cls-2{fill:#485caf;}</style></defs><title>Vogel</title><g id="Vliegendevolgel"><path id="Path_70" data-name="Path 70" class="cls-1" d="M25.23,269.43a476.15,476.15,0,0,0,49.49-37.92c26.59-23.3,23.19-25.62,46.61-46.54,8.51-7.6,22.89-19.73,25.9-29.87.24-.83,2-7,4-6.9.89,0,1.64,1.24,2.3,2.3a15.63,15.63,0,0,1,1.73,4.6,24.38,24.38,0,0,0-.58-5.17c-.53-3.08-1-4.42-.57-4.6s1.63,1.39,2.3,2.3c2,2.74,2.59,4.69,2.88,4.6s.11-3.13-1.15-6.32c-1.12-2.8-2.51-4.44-2.31-4.6s1.91,1.49,3.45,3.45c2.91,3.69,3.67,6.44,4,6.32s-.48-5.11-2.3-8a19.93,19.93,0,0,0-3.18-3.79l-.27-.24c1.75-2.18,3.13-4,4-5.17,9.3-12.27,7.83-12.77,10.94-15.51a6,6,0,0,0,2.3-3.45c.24-1.41-.39-2.12-.57-4a13.28,13.28,0,0,1,.57-4.6,19.94,19.94,0,0,0-.57-8.62c-.68-3.65.25-15.09,5.52-44.53-11.14,26.27-22.55,33.81-31.42,35.34-5.84,1-14.1,0-19,5.75-3.64,4.29-3.41,9.74-3.45,13.21-.18,13.8-5.68,25.29-16.69,48.26-1.38,2.88-2.07,4.09-19.57,31C73.28,212,65,224.65,62.06,228.64A293.18,293.18,0,0,1,25.23,269.43Z"/><path id="Path_71" data-name="Path 71" class="cls-2" d="M262.9,68.67a168.92,168.92,0,0,1-25.76-13.85c-6.44-4.38-6.81-5.66-19.81-15.17-2.19-1.6-4.17-3-5.87-4.23-.44-.56-.91-1.14-1.4-1.71-3.15-3.66-6.57-5.57-12.55-9.89-4.51-3.26-3.15-2.59-8.59-6.59C177.57,8.86,176.7,9.69,174.39,6.67A20.53,20.53,0,0,0,167.78.74c-.56-.3-1-.53-1.32-.66a.7.7,0,0,0-.66,0c-.28.21-.15.82,0,1.32a12.54,12.54,0,0,0,2,4c1.18,1.48,2.14,3.12,3.3,4.62,2.92,3.77,4.38,5.65,4.63,5.94,2.2,2.48,2.45,2.25,5.28,5.27s2.44,3.09,4.63,5.28,3,2.53,5.94,5.27c1.73,1.62,3.15,2.2,4,4a6.59,6.59,0,0,1,.66,3.3c-.28,3-3.07,4.91-4.63,5.94a16.76,16.76,0,0,1-3.37,1.73,22.4,22.4,0,0,1-4.55-.41c-1.24-.19-10.89-1.63-16.78-1-5.74-.11-10.77.07-14.93.34l-.52,0c-11.9.61-18,1-23.26,2.61-4.14,1.29-6.29,2-8.59,4-3.55,3.07-4,6.26-6.61,6.59-2.16.27-2.54-1.76-6.6-3.3-1.73-.65-4.23-.88-9.25-1.32-3.2-.28-4.92-.3-7.27-1.32a14.75,14.75,0,0,1-3.3-2c-2.83.71-5.08,1.44-6.61,2-5.08,1.79-7.35,3.24-10.57,2.64A9.24,9.24,0,0,1,66,54.16c-.66.74-1.6,2-1.32,3.3.49,2.18,4.27,3.12,6.61,3.3,6.38.49,8.49-4.15,14.54-3.3a30.32,30.32,0,0,1,5.29,2,102.1,102.1,0,0,1,10.57,5.28c6.75,3.74,7.71,4.52,9.25,5.27a15.63,15.63,0,0,0,6.08,1.6c-1.55,3.92-1.42,8-1.46,10.93-.2,15.85-6.52,29-19.16,55.4-1.58,3.3-2.37,4.69-22.46,35.62-18.82,29-28.3,43.56-31.7,48.14A337.75,337.75,0,0,1,0,268.5,548.49,548.49,0,0,0,56.81,225c30.52-26.75,26.62-29.41,53.5-53.42,9.77-8.72,26.28-22.65,29.73-34.3.28-.94,2.29-8,4.62-7.91,1,0,1.89,1.42,2.65,2.64a18.06,18.06,0,0,1,2,5.27,28.14,28.14,0,0,0-.66-5.93c-.61-3.54-1.09-5.07-.66-5.28s1.87,1.6,2.64,2.64c2.32,3.14,3,5.38,3.3,5.28s.13-3.6-1.32-7.26c-1.27-3.22-2.87-5.09-2.64-5.27s2.2,1.71,4,3.95c3.34,4.24,4.21,7.4,4.63,7.26s-.55-5.87-2.64-9.23a22.41,22.41,0,0,0-3.66-4.35l-.31-.27c2-2.51,3.6-4.58,4.63-5.94,10.66-14.08,9-14.66,12.55-17.8a7,7,0,0,0,2.64-4c.27-1.62-.45-2.44-.66-4.62a15.16,15.16,0,0,1,.66-5.27c.92-4.65-.52-8-.66-9.9-.1-1.38.41-3.08,2.2-5.15a54.43,54.43,0,0,0,9.65-3.54,60.11,60.11,0,0,1,11.93-1.86c4.89-.26,9.6.1,27.08,4.62,15.81,4.08,22.66,6.55,42.28,11.87,4.22,1.15,7.68,2.06,9.91,2.64,1.44-.53,3.16-1.39,3.3-2.64C277.73,74.58,270.68,72.1,262.9,68.67Z"/></g></svg>