<svg id="Layer_1" data-name="Layer 1" xmlns="http://www.w3.org/2000/svg" xmlns:xlink="http://www.w3.org/1999/xlink" viewBox="0 0 425 149.19"><defs><style>.cls-1{fill:url(#linear-gradient);}.cls-2{fill:url(#linear-gradient-2);}</style><linearGradient id="linear-gradient" x1="-20902.05" y1="141.23" x2="-20894.94" y2="28.77" gradientTransform="matrix(-1, 0, 0, 1, -20589, 0)" gradientUnits="userSpaceOnUse"><stop offset="0.11" stop-color="#fff"/><stop offset="0.13" stop-color="#eeefef"/><stop offset="0.23" stop-color="#adb1b2"/><stop offset="0.32" stop-color="#777e80"/><stop offset="0.4" stop-color="#4c5659"/><stop offset="0.48" stop-color="#2e3a3c"/><stop offset="0.55" stop-color="#1c282b"/><stop offset="0.59" stop-color="#152225"/></linearGradient><linearGradient id="linear-gradient-2" x1="-20801.74" y1="168.01" x2="-20801.29" y2="-68.12" xlink:href="#linear-gradient"/></defs><title>Walvis</title><path class="cls-1" d="M324,82.6c2.73,12.12,3.59,13.36,4,19.28.79,12-1.93,18.85-2.66,20.61-2.38,5.69-6.73,12-8.64,11.3-2.18-.77,1.38-9.6-1.33-21.94a50.29,50.29,0,0,0-6-14.62c-9-16.23-18.35-17.84-17.95-24.6.55-9.13,18.34-18.53,25.93-14C320.43,60.55,319.64,63.48,324,82.6Z"/><path class="cls-2" d="M306.67,86.15c2.25-1.68,2-1.19,19.95-9.31,17.11-7.75,25.67-11.63,31.24-14.62,18.63-10,18.31-13.06,26.81-14.18,6.13-.82,10.95.14,21.94-2,6.42-1.25,9.87-2.57,12.63-5.32A65.64,65.64,0,0,0,425,33.41c-1.41-5.53-3.85-8-5.76-9.3-2.26-1.51-3.32-1-10-3.33-5-1.79-4.88-2.26-7.31-2.66-3.91-.63-5,.47-9.31,0-3-.33-2.92-.92-7.31-2-7.47-1.83-8.22-.24-12.86-2s-5.31-3.94-8.64-4c-3.06-.05-5.6,1.74-7.31,3.32l-19.28-2c-11.35.26-20.57.5-26.59.66-72.36,1.93-79.92,3.11-84.64,4a81.48,81.48,0,0,1-18.62,2,178.24,178.24,0,0,1-21.93-2c-5.34-.87-10.1-1.93-10.64-.67-.7,1.65,6.65,5.06,6,8-.56,2.46-6.47,3.07-9.3,3.32-17.79,1.61-29.25,0-29.25,0-11.08-1.55-22.31-1.68-33.46-2.65-8.91-.78-21.89-1.81-37.89-2.66C68,19.7,63.09,16.67,57,12.8,42.86,3.94,40.06,1.73,34.35.62,25.5-1.1,15.2.91,14.18,4.83c-.62,2.38,2.74,3.34,7.54,10.63s4.36,10.68,8.64,14a17.49,17.49,0,0,0,9.31,3.33,50,50,0,0,1-9.31,7.31c-2.87,1.74-5.73,3.07-15.51,6.65-12.13,4.43-14.94,5-14.85,6,.16,1.69,9.12,3.26,18.17,2,7.52-1,6.73-2.89,22.16-8,9.93-3.28,12.51-3.26,17.28-6.65,3.71-2.64,4.71-4.47,8-5.32,5.49-1.43,10.46,1.71,14.63,4,9.89,5.43,4.35.08,25.92,10s30.32,16.68,46.09,24.15c33.53,15.89,65.41,19,81.76,20.61,10.4,1,19.11,1.29,25.27,1.33A65.33,65.33,0,0,0,244,108.09c-5.83,7-5.56,9.79-11.3,15.29-5.25,5-7.91,5-16,10.63-10,7-15.28,10.3-14.62,12.63,1.13,4,18.55,2.15,19.94,2,3.22-.36,18.5-2.23,37.89-13.3,8.9-5.08,16.52-9.43,24.15-18C296.23,103.82,294.33,95.38,306.67,86.15Z"/></svg>