<svg id="Layer_1" data-name="Layer 1" xmlns="http://www.w3.org/2000/svg" xmlns:xlink="http://www.w3.org/1999/xlink" viewBox="0 0 151.22 92.39"><defs><style>.cls-1{fill:url(#linear-gradient);}</style><linearGradient id="linear-gradient" x1="77.56" y1="96.67" x2="72.18" y2="-50.82" gradientUnits="userSpaceOnUse"><stop offset="0.11" stop-color="#6bb5f4"/><stop offset="0.22" stop-color="#7abdf5"/><stop offset="0.43" stop-color="#a2d0f8"/><stop offset="0.73" stop-color="#e1f0fd"/><stop offset="0.86" stop-color="#fff"/></linearGradient></defs><title>Walvis</title><path class="cls-1" d="M148.74,59.72c-.53-1.31-7,1.88-17.42,1.84A80.92,80.92,0,0,1,118,60.41c-1.69-.29-3.31-.62-4.85-1a.42.42,0,0,1-.07-.79c17.26-7.15,30.69-9.88,36-20.48s-.24-23.17-4.16-23.65c-3.31-.41-3.76,8.1-13.2,18.29-4.66,5-7.76,6.41-17.65,12a.41.41,0,0,1-.48-.67c8.61-7.77,15.09-13.73,14.74-22.68C127.85,10.05,116.52-.12,112.72.6c-3.22.61.61,8.7-2.89,21a25.81,25.81,0,0,1-4,8.39.42.42,0,0,1-.73-.39c2.31-5.72,2.59-8.89,2.48-11.84a35.79,35.79,0,0,0-4.09-15,.41.41,0,0,0-.77.11A92.57,92.57,0,0,1,84.16,44.15c-1.54,2-3.09,3.79-4.62,5.51a.41.41,0,0,1-.71-.35c1.41-7.54,2.62-12.11,2.62-12.11,1.18-4.48,3-10.76,0-18.29C79,12.91,73.51,6.08,70.08,6.59c-4.5.67-4.09,13.82-3.7,26.13.15,4.54.42,8.37.81,12a.41.41,0,0,1-.74.29c-.21-.27-.43-.54-.64-.82A93.75,93.75,0,0,1,47.7,3a.41.41,0,0,0-.77-.11,36.57,36.57,0,0,0-4,15,22.86,22.86,0,0,0,1,7.71.41.41,0,0,1-.77.29,27,27,0,0,1-1.77-4.79C38,8.74,41.73.65,38.59,0,34.88-.68,23.84,9.49,23.4,20.9a16.82,16.82,0,0,0,.46,4.65.42.42,0,0,1-.76.31c-5.46-9.4-5.32-16.09-8.21-16.1C11,9.76,4.18,21.63,8,32.72c3.66,10.6,15.23,15.08,29.92,23.37a.42.42,0,0,1-.11.77c-2,.48-4.22,1-6.55,1.35A81,81,0,0,1,.5,57.53a.41.41,0,0,0-.37.7A25.26,25.26,0,0,0,8,63.39c3.3,1.38,7.42,2.3,23.64,1.39,10.35-.59,14.68-1.3,18-1.38a.69.69,0,0,1,.25.08c4.08,1.26,6.4,2,9,2.57,3.06.73,3.4.6,4.28,1.23A7.51,7.51,0,0,1,65.68,71c3.58,9.85,6.53,12.12,5.74,18A15.37,15.37,0,0,1,71,91.14l6.91,1.25c-.24-1.28-2-11.65,5-19.46,5.62-6.28,13.76-7.45,14.29-7.27a1.69,1.69,0,0,0,1.07,0l.12,0h.07c3.54-.08,7.6.73,19.14,1.38,16.22.92,20.33,0,23.64-1.38a20.49,20.49,0,0,0,3.88-2C145.57,63.26,149.16,60.75,148.74,59.72Z"/></svg>