<svg id="Layer_1" data-name="Layer 1" xmlns="http://www.w3.org/2000/svg" xmlns:xlink="http://www.w3.org/1999/xlink" viewBox="0 0 1924 1012.18"><defs><style>.cls-83{fill:url(#linear-gradient);}</style><linearGradient id="linear-gradient" x1="962" y1="-394.62" x2="962" y2="1218.39" gradientUnits="userSpaceOnUse"><stop offset="0" stop-color="#fff" stop-opacity="0.1"/><stop offset="0.13" stop-color="#c6dff0" stop-opacity="0.26"/><stop offset="0.34" stop-color="#71b0da" stop-opacity="0.49"/><stop offset="0.54" stop-color="#338dc9" stop-opacity="0.66"/><stop offset="0.7" stop-color="#0d78c0" stop-opacity="0.76"/><stop offset="0.82" stop-color="#0071bc" stop-opacity="0.8"/></linearGradient></defs><title>Walvissen</title><path class="cls-83" d="M1924,1012.18H0V8.18c12.77,40.87,31.38,57.08,47,64,58.23,25.81,109.18-62.1,217.66-64C331.49,7,331,40.05,409,38.18c72.78-1.74,85.28-30.79,159-30,62.17.67,63.61,21.44,131,27,80.46,6.64,94.89-21.6,184.35-27,85.94-5.18,94,19.6,193.65,24,111.06,4.9,109.24-25.51,207.35-24,155.89,2.4,183.52,79.52,302.65,57,67.44-12.74,74-40.37,160.81-57,71.61-13.72,133.75-7.69,176.19,0Z"/></svg>